<?xml version="1.0" standalone="no"?>
<!DOCTYPE svg PUBLIC "-//W3C//DTD SVG 20010904//EN"
 "http://www.w3.org/TR/2001/REC-SVG-20010904/DTD/svg10.dtd">
<svg version="1.0" xmlns="http://www.w3.org/2000/svg"
 width="655.000000pt" height="388.000000pt" viewBox="0 0 655.000000 388.000000"
 preserveAspectRatio="xMidYMid meet">

<g transform="translate(0.000000,388.000000) scale(0.100000,-0.100000)"
fill="#000000" stroke="none">
<path d="M305 3861 c11 -10 179 -145 373 -300 333 -266 352 -283 341 -304 -7
-12 -60 -94 -119 -182 -59 -88 -109 -165 -111 -171 -6 -17 -173 -263 -179
-263 -3 -1 -137 107 -299 239 -162 133 -298 243 -302 246 -5 3 -9 -16 -9 -43
l1 -48 283 -230 284 -230 -36 -50 c-20 -27 -116 -164 -215 -303 -98 -138 -180
-252 -182 -252 -2 0 -31 23 -64 50 -33 28 -63 50 -66 50 -3 0 -5 -20 -5 -44 0
-41 4 -48 45 -82 32 -26 42 -40 35 -49 -6 -7 -6 -15 2 -23 8 -8 -2 -28 -36
-76 l-46 -65 0 -113 0 -113 91 137 c92 137 92 138 114 120 12 -9 85 -70 161
-136 l139 -118 54 5 55 6 83 -65 c46 -36 83 -67 83 -70 0 -7 -291 -364 -297
-364 -18 0 -221 164 -216 174 4 6 17 26 30 45 37 55 31 83 -31 135 -29 25 -58
46 -64 46 -6 0 -27 -24 -48 -52 -21 -29 -41 -57 -45 -62 -4 -5 -30 8 -58 29
-61 44 -68 30 -11 -21 25 -23 40 -45 40 -60 0 -15 16 -37 50 -65 28 -23 50
-46 50 -50 0 -5 -30 -43 -67 -86 -37 -43 -68 -80 -70 -83 -2 -2 -13 1 -23 8
-19 11 -20 9 -20 -33 0 -73 36 -119 123 -160 40 -18 87 -36 105 -40 17 -4 32
-9 32 -11 0 -3 -58 -80 -130 -172 l-130 -167 0 -60 c0 -71 -16 -85 164 147
l138 178 46 -38 c26 -22 70 -52 97 -67 28 -16 136 -99 240 -185 464 -381 450
-370 494 -370 36 0 44 5 68 38 120 164 451 577 463 577 5 0 103 -83 219 -185
182 -159 209 -186 198 -200 -8 -8 -53 -63 -101 -122 l-87 -108 49 0 50 0 76
95 c42 52 79 95 83 95 3 0 44 -35 92 -77 47 -42 96 -85 107 -95 15 -14 29 -17
48 -12 34 8 33 24 -2 24 -21 0 -53 22 -130 91 l-103 91 27 37 c15 20 42 55 61
78 l33 42 57 -20 c67 -23 208 -96 258 -135 27 -20 34 -32 29 -46 -5 -17 -3
-19 16 -13 19 6 35 -5 101 -76 90 -96 119 -101 35 -6 -122 137 -294 256 -433
297 -24 7 -43 16 -43 19 0 16 352 456 364 455 7 -1 197 -149 421 -329 353
-284 406 -330 391 -340 -9 -7 -78 -48 -152 -91 l-136 -79 71 -3 71 -3 117 70
c65 38 204 121 308 185 105 64 197 115 205 113 9 -2 122 -86 252 -185 l236
-182 62 0 63 0 -269 206 c-148 113 -270 207 -272 209 -2 2 131 83 295 181 164
97 414 246 556 331 l258 155 77 -59 c65 -49 353 -317 417 -388 20 -22 470
-378 618 -489 58 -44 77 -64 77 -82 0 -37 -28 -30 -33 8 l-5 33 2 -35 c1 -41
34 -57 43 -21 4 17 8 18 24 8 18 -11 18 -12 1 -20 -12 -5 -9 -6 10 -4 18 3 34
-3 44 -14 10 -12 31 -19 51 -19 l34 0 -3 62 -3 63 -160 127 c-88 69 -248 196
-355 280 -186 148 -195 156 -195 189 1 49 11 150 44 444 16 143 44 411 62 595
18 184 35 339 39 343 7 8 486 -35 548 -49 20 -4 22 -1 22 36 0 22 -4 40 -9 40
-19 0 -498 50 -528 55 l-32 6 4 62 c8 112 55 601 61 630 4 17 12 27 24 27 21
0 386 -37 443 -45 l37 -5 0 75 c0 53 -4 75 -12 75 -26 0 -424 41 -447 46 -27
6 -30 -39 21 382 31 257 32 262 54 262 30 0 193 109 222 149 18 24 19 31 7 31
-8 0 -20 -10 -27 -21 -15 -25 -183 -139 -205 -139 -13 0 -14 11 -8 67 4 36 9
72 12 80 4 11 -85 13 -508 11 -283 -1 -490 -3 -460 -5 l54 -4 -7 -72 c-3 -40
-9 -116 -12 -170 -10 -144 -8 -142 -179 -125 -75 7 -139 10 -141 6 -10 -16 7
-46 29 -51 12 -3 74 -9 139 -13 64 -3 120 -9 126 -13 6 -4 6 -60 -2 -161 l-11
-155 -35 3 c-74 6 -425 43 -426 45 -1 1 -17 27 -35 57 -53 89 -90 129 -145
160 -28 17 -66 30 -83 30 -25 0 -51 15 -114 68 -45 37 -175 143 -289 235
l-208 168 -57 -3 -58 -3 300 -241 c165 -133 312 -254 327 -269 32 -32 42 -72
34 -129 l-7 -42 -382 43 c-210 23 -474 52 -587 63 -238 24 -276 32 -302 58
-37 37 -27 75 111 396 28 65 51 120 51 122 0 2 -17 4 -38 4 -45 0 -37 13 -145
-240 -65 -152 -70 -170 -71 -237 l0 -72 -46 -10 c-25 -5 -110 -12 -190 -15
-135 -4 -146 -3 -175 17 -45 32 -315 244 -523 410 l-184 147 -110 0 c-61 0
-109 -1 -107 -3 308 -247 731 -579 874 -687 190 -144 435 -338 435 -346 0 -2
-38 -67 -85 -143 -112 -185 -113 -194 -14 -296 48 -50 68 -78 63 -87 -16 -26
-108 -138 -113 -138 -3 0 -44 27 -90 60 -77 55 -89 60 -136 60 -50 0 -53 -2
-84 -45 -17 -24 -36 -47 -41 -50 -5 -3 -76 48 -157 114 -82 66 -375 301 -653
522 -278 222 -504 406 -503 410 2 4 95 147 207 318 l205 311 -77 -1 -77 0 -70
-89 c-38 -49 -81 -111 -95 -137 -27 -54 -184 -285 -204 -302 -9 -7 -101 61
-349 259 l-337 270 -57 0 c-56 0 -57 0 -38 -19z m5378 -27 c177 -14 323 -26
324 -28 3 -2 -88 -760 -91 -764 -2 -1 -146 13 -322 31 l-319 33 3 79 c3 105
41 624 48 653 2 12 11 22 20 22 9 0 160 -12 337 -26z m-1148 -473 c59 -34 80
-56 130 -135 l37 -59 -103 8 c-57 4 -107 9 -111 12 -5 2 -8 37 -8 76 0 43 -6
83 -14 100 -13 24 -13 27 2 27 9 0 40 -13 67 -29z m-1440 -75 c34 -23 70 -31
231 -53 l61 -8 -15 -53 c-13 -47 -18 -53 -36 -48 -12 3 -73 15 -136 27 -164
30 -193 46 -214 116 -5 17 -1 23 21 31 41 15 49 14 88 -12z m-126 -46 c24 -51
61 -82 114 -94 21 -5 27 -12 27 -35 0 -20 11 -38 40 -63 37 -34 39 -38 29 -66
-6 -17 -18 -37 -27 -45 -15 -14 -27 -7 -127 74 -60 50 -161 129 -222 177
l-113 87 53 6 c28 3 86 6 127 7 l75 2 24 -50z m877 -60 c322 -36 730 -79 1742
-182 l323 -33 -3 -40 c-3 -38 -2 -40 24 -37 35 3 40 -6 32 -72 -6 -50 -9 -56
-30 -56 -17 0 -24 -6 -24 -19 0 -11 -5 -21 -12 -23 -8 -3 -20 -89 -35 -258
-13 -139 -24 -255 -26 -256 -5 -6 -975 85 -1297 121 -210 24 -357 35 -415 33
-85 -3 -93 -5 -147 -41 -63 -42 -72 -41 -118 8 -14 15 -143 124 -287 242 -145
118 -263 216 -263 218 0 2 29 77 64 167 35 90 70 187 77 216 7 28 18 52 25 52
6 0 173 -18 370 -40z m-2141 -440 c300 -239 545 -438 545 -441 0 -8 -458 -583
-468 -587 -4 -1 -89 62 -187 140 -371 293 -865 690 -865 696 0 3 50 80 110
172 61 91 110 170 110 174 0 5 22 38 49 75 26 36 70 99 96 139 27 40 52 71 56
70 5 -2 254 -199 554 -438z m1500 386 c75 -12 135 -30 135 -40 0 -17 -93 -246
-99 -246 -3 0 -22 13 -41 29 l-34 29 22 45 c28 56 28 82 0 105 -45 36 -58 53
-58 73 0 15 5 19 18 16 9 -3 35 -8 57 -11z m-17 -418 c28 -22 52 -44 52 -49 0
-5 -53 -76 -117 -157 -64 -81 -119 -149 -121 -152 -8 -10 -131 128 -138 155
-8 33 1 52 106 222 l63 102 51 -41 c28 -22 75 -58 104 -80z m329 -272 c106
-86 195 -161 198 -166 6 -9 -463 -626 -489 -644 -8 -6 -78 44 -224 163 l-213
172 42 52 c23 29 138 175 257 324 141 180 219 270 226 264 6 -4 98 -79 203
-165z m-2538 -190 l290 -234 -90 -119 c-50 -65 -92 -120 -94 -121 -4 -4 -378
269 -409 299 -18 17 -18 18 13 57 17 22 31 47 31 55 0 17 -50 64 -111 104 -21
14 -39 29 -39 33 0 8 109 160 115 160 2 0 134 -105 294 -234z m-354 -3 c36
-26 65 -52 65 -58 0 -17 -60 -95 -74 -95 -7 0 -19 -14 -27 -32 -27 -60 -45
-56 -172 33 -10 7 121 199 135 199 4 0 37 -21 73 -47z m3882 10 l353 -38 0
-50 c0 -27 -5 -99 -11 -160 -6 -60 -16 -179 -23 -263 -7 -84 -15 -155 -18
-157 -3 -3 -126 91 -274 208 -148 117 -330 259 -404 316 -74 57 -139 107 -143
111 -9 8 58 55 89 63 40 10 89 7 431 -30z m-1781 -13 c32 -22 72 -51 89 -64
l29 -24 -44 -57 c-25 -31 -50 -63 -57 -72 -10 -12 -26 -2 -110 67 -54 45 -99
85 -101 89 -1 4 14 29 33 54 47 62 78 63 161 7z m-229 -136 c98 -80 179 -149
181 -153 1 -3 -106 -138 -238 -299 l-241 -292 -150 127 c-83 71 -162 136 -175
146 -13 10 -24 23 -24 28 0 11 457 589 466 589 2 0 84 -66 181 -146z m1530
-87 c678 -527 1109 -876 1096 -887 -4 -4 -176 -107 -381 -229 l-372 -222 -238
203 c-130 112 -375 311 -544 443 -275 214 -306 241 -295 257 17 25 482 627
484 628 1 0 113 -87 250 -193z m1383 147 c228 -20 416 -38 418 -39 2 -2 -13
-163 -32 -360 -20 -196 -36 -365 -36 -376 0 -12 -7 -19 -20 -19 -17 0 -20 7
-20 41 0 24 -4 38 -10 34 -5 -3 -10 -21 -10 -40 l0 -34 -47 5 c-130 12 -311
24 -373 24 -56 0 -78 -5 -125 -30 l-57 -30 -106 88 -107 89 -3 89 c-1 49 2 98
7 109 11 21 32 225 24 237 -4 8 13 195 22 235 4 18 11 22 33 18 15 -3 214 -21
442 -41z m-4940 -139 c39 -25 77 -45 84 -45 8 0 23 11 33 24 l18 24 212 -156
c117 -87 212 -162 210 -168 -3 -16 -221 -293 -231 -293 -10 -1 -134 94 -159
122 -9 10 -17 33 -17 51 0 17 -7 42 -16 54 -19 27 -244 214 -318 264 -6 4 -2
17 9 35 31 47 95 133 100 133 3 0 36 -20 75 -45z m1067 -222 c110 -87 213
-168 229 -179 l29 -21 -47 -70 c-27 -38 -48 -78 -48 -87 0 -25 -60 -96 -81
-96 -10 0 -31 -16 -46 -36 -15 -20 -63 -79 -105 -132 -43 -54 -78 -106 -78
-117 0 -11 -16 -33 -35 -48 l-35 -28 -230 181 c-127 100 -230 184 -230 187 0
3 71 96 158 206 87 111 191 246 232 300 41 53 77 97 81 97 3 0 96 -71 206
-157z m1438 -90 c116 -93 368 -293 560 -443 193 -151 443 -354 558 -453 l208
-179 -223 -132 c-123 -73 -276 -165 -342 -205 -65 -39 -121 -71 -125 -69 -4 2
-310 245 -679 541 -465 373 -670 543 -664 550 5 7 114 139 242 295 158 193
236 280 243 274 7 -5 107 -85 222 -179z m-2672 148 l37 -29 -36 -46 -35 -46
-34 27 c-19 16 -35 32 -35 36 0 11 53 87 61 87 3 0 23 -13 42 -29z m180 -141
c54 -45 96 -84 93 -87 -3 -3 -20 -8 -38 -12 -31 -7 -33 -10 -31 -44 1 -20 1
-37 -1 -37 -7 0 -211 172 -214 181 -2 4 12 28 30 52 24 33 37 43 48 37 8 -5
59 -45 113 -90z m119 -145 c4 -33 2 -35 -29 -41 -40 -7 -39 -8 -47 33 -8 33 0
39 50 42 18 1 23 -6 26 -34z m1308 -79 c-1 -6 -9 -21 -19 -33 -16 -19 -23 -20
-60 -12 -27 6 -55 6 -77 0 -19 -5 -34 -7 -34 -4 0 4 21 37 46 74 l47 68 48
-41 c27 -23 49 -46 49 -52z m133 -102 c56 -48 104 -88 106 -90 1 -1 0 -8 -4
-13 -4 -7 -22 0 -50 20 -52 37 -71 34 -119 -23 l-35 -41 6 36 c7 47 -1 79 -32
115 l-25 30 21 26 c11 14 22 26 25 26 2 0 50 -39 107 -86z m-168 12 c52 -40
62 -77 42 -153 -27 -102 -36 -110 -141 -118 -98 -8 -98 -8 -117 60 -16 55 -13
98 9 148 43 94 131 121 207 63z m-1625 -48 c56 -47 53 -77 -13 -160 l-30 -37
-26 19 c-14 11 -39 31 -55 44 l-29 24 53 71 c29 39 55 71 57 71 2 0 22 -15 43
-32z m875 -242 c83 -65 156 -124 163 -131 11 -10 9 -20 -10 -57 -13 -25 -32
-49 -43 -54 -23 -10 -105 -109 -174 -209 -26 -38 -69 -92 -96 -120 -54 -57
-65 -80 -65 -136 0 -44 11 -72 43 -107 16 -17 18 -25 9 -34 -8 -8 -23 -1 -59
28 -290 239 -367 300 -423 334 -36 22 -78 51 -94 64 -26 21 -27 26 -15 43 8
11 119 151 248 311 l234 291 66 -53 c36 -29 134 -105 216 -170z m507 160 c-3
-48 4 -92 22 -137 6 -13 -4 -17 -63 -22 -46 -4 -87 -15 -121 -32 -84 -43 -85
-44 74 158 38 48 74 87 80 87 7 0 10 -19 8 -54z m3931 33 l189 -13 -6 -30 c-3
-17 -15 -123 -27 -236 -12 -113 -24 -207 -26 -210 -2 -2 -61 52 -131 121 -70
69 -158 150 -197 179 -38 30 -100 80 -138 112 -65 55 -66 58 -45 69 42 23 74
28 133 24 33 -2 145 -9 248 -16z m-3452 -36 c7 -8 -55 -93 -216 -295 -125
-156 -232 -283 -239 -283 -10 0 -10 6 2 49 3 13 1 17 -9 14 -8 -3 -14 -13 -14
-24 0 -13 -9 -21 -29 -26 -50 -11 -59 0 -29 38 19 26 31 33 46 28 17 -5 19 -3
14 16 -5 19 19 54 122 184 70 89 155 198 189 243 75 99 87 107 125 85 16 -9
33 -22 38 -29z m319 -195 c118 -94 214 -175 213 -179 -2 -5 -92 -122 -200
-261 -108 -139 -217 -279 -241 -310 -24 -32 -47 -58 -51 -58 -15 0 -416 360
-416 373 0 14 464 606 475 607 3 0 102 -77 220 -172z m-2073 0 c60 -45 107
-85 105 -90 -3 -12 -143 -182 -152 -186 -4 -1 -47 12 -96 29 -65 24 -98 42
-121 68 -18 19 -33 39 -33 44 0 18 166 216 182 217 4 0 56 -37 115 -82z m1456
0 c-17 -23 -35 -44 -42 -46 -10 -3 -71 55 -71 69 0 6 131 27 139 22 3 -2 -9
-22 -26 -45z m-118 -9 c17 -23 38 -45 47 -50 15 -8 -8 -41 -159 -232 -97 -122
-182 -228 -189 -236 -10 -11 -18 -9 -46 12 -18 13 -47 32 -64 40 -38 20 -48
64 -34 151 25 157 64 218 181 287 62 36 158 66 214 68 12 0 32 -15 50 -40z
m-455 -250 c-6 -18 -10 -71 -10 -116 l0 -82 -53 6 c-28 3 -69 1 -90 -5 -43
-12 -44 -14 22 73 62 83 133 167 137 162 2 -2 -1 -19 -6 -38z m406 -142 c3 -3
-25 -43 -63 -89 -38 -46 -134 -166 -213 -268 -79 -102 -145 -187 -148 -190
-10 -12 -40 44 -47 86 l-7 46 64 66 c35 37 116 133 181 213 l117 146 55 -2
c30 -1 58 -4 61 -8z m-439 -73 c29 -6 30 -9 42 -83 6 -42 8 -92 5 -111 -8 -46
-86 -127 -134 -140 -68 -19 -97 -13 -144 30 -80 74 -77 145 8 231 65 66 139
90 223 73z m126 -56 c15 -11 27 -25 27 -31 -1 -7 -21 -34 -45 -62 l-44 -50 1
50 c1 28 -2 70 -7 93 -7 44 -7 44 16 31 13 -6 36 -21 52 -31z m-256 -302 l73
1 5 -36 c6 -37 11 -48 36 -88 12 -20 12 -25 -2 -38 -14 -15 -26 -8 -122 71
-59 47 -104 91 -101 96 3 5 13 6 23 1 9 -4 49 -8 88 -7z"/>
<path d="M6530 3841 c0 -17 5 -33 10 -36 6 -4 10 8 10 29 0 20 -4 36 -10 36
-5 0 -10 -13 -10 -29z"/>
<path d="M6507 3576 c-54 -33 -87 -67 -87 -89 0 -22 53 -118 75 -137 17 -14
47 -10 53 8 2 8 -5 11 -19 10 -18 -2 -30 8 -56 52 -19 30 -32 62 -31 70 3 14
75 74 99 82 7 2 10 9 8 15 -3 8 -17 4 -42 -11z"/>
<path d="M581 124 c0 -11 3 -14 6 -6 3 7 2 16 -1 19 -3 4 -6 -2 -5 -13z"/>
<path d="M2633 125 c-8 -22 6 -33 17 -15 13 20 12 30 0 30 -6 0 -13 -7 -17
-15z"/>
<path d="M4970 96 c0 -7 -9 -16 -21 -19 -28 -7 -21 -41 9 -45 20 -3 22 1 22
37 0 23 -2 41 -5 41 -3 0 -5 -6 -5 -14z m0 -41 c0 -8 -4 -15 -9 -15 -13 0 -22
16 -14 24 11 11 23 6 23 -9z"/>
<path d="M5731 70 c-1 -34 2 -41 11 -32 7 7 20 12 31 12 10 0 17 5 15 13 -3 6
-13 12 -24 12 -10 0 -22 9 -26 20 -4 13 -6 4 -7 -25z"/>
<path d="M6278 93 c-2 -10 -1 -29 3 -43 6 -21 7 -22 9 -5 1 11 3 30 4 43 3 26
-10 30 -16 5z"/>
<path d="M2596 84 c-4 -9 -4 -19 -1 -22 7 -8 35 19 29 29 -8 14 -21 11 -28 -7z"/>
<path d="M4721 63 c1 -34 2 -35 9 -13 11 36 11 50 0 50 -5 0 -10 -17 -9 -37z"/>
<path d="M4766 92 c-3 -5 -1 -22 4 -38 8 -29 8 -29 9 9 1 36 -3 45 -13 29z"/>
<path d="M5048 89 c-2 -7 -3 -23 0 -35 3 -16 12 -21 39 -22 30 -1 34 1 31 21
-2 13 -11 23 -23 25 -13 2 -16 0 -8 -5 9 -6 6 -12 -9 -22 -19 -12 -20 -11 -16
7 7 23 -7 52 -14 31z"/>
<path d="M5167 93 c-14 -13 -7 -25 8 -13 8 6 20 10 27 7 8 -4 7 -6 -4 -6 -11
-1 -18 -9 -18 -21 0 -12 7 -20 18 -21 11 0 12 -2 4 -6 -7 -3 -20 1 -29 9 -14
11 -16 11 -11 -2 6 -18 46 -26 60 -12 7 7 3 12 -11 17 -27 8 -27 22 -1 30 11
4 18 11 15 16 -7 10 -48 12 -58 2z"/>
<path d="M5258 93 c17 -7 15 -23 -5 -45 -15 -17 -15 -18 13 -17 24 0 26 2 10
8 -14 5 -16 10 -8 15 19 11 15 46 -5 45 -11 0 -13 -3 -5 -6z"/>
<path d="M5296 82 c-9 -27 3 -54 23 -50 22 5 22 62 -1 66 -9 2 -19 -5 -22 -16z
m30 -28 c-5 -13 -10 -14 -18 -6 -6 6 -8 18 -4 28 5 13 10 14 18 6 6 -6 8 -18
4 -28z"/>
<path d="M5361 100 c-1 -3 -3 -20 -4 -37 -2 -32 -1 -32 38 -30 37 2 40 4 40
32 -1 23 -6 30 -20 30 -11 0 -20 -7 -21 -15 -2 -33 -4 -40 -13 -40 -6 0 -12
15 -14 33 -2 17 -5 30 -6 27z m69 -44 c0 -11 -19 -15 -25 -6 -3 5 1 10 9 10 9
0 16 -2 16 -4z"/>
<path d="M5479 84 c-9 -11 -10 -20 -2 -32 8 -14 28 -17 99 -18 49 -1 98 -3
109 -4 l20 -1 -20 -9 c-19 -8 -19 -9 3 -9 19 -1 22 4 22 33 l0 34 -82 -3
c-118 -3 -118 -3 -112 -20 4 -9 0 -15 -9 -15 -8 0 -17 6 -20 13 -8 22 9 40 32
34 12 -3 19 -1 15 4 -8 14 -40 10 -55 -7z m106 -23 c7 -12 -12 -24 -25 -16
-11 7 -4 25 10 25 5 0 11 -4 15 -9z m60 0 c7 -12 -12 -24 -25 -16 -11 7 -4 25
10 25 5 0 11 -4 15 -9z m55 -6 c0 -8 -4 -15 -9 -15 -13 0 -22 16 -14 24 11 11
23 6 23 -9z"/>
<path d="M5918 93 c6 -2 12 -18 12 -34 0 -16 5 -29 10 -29 6 0 10 13 10 29 0
16 6 32 13 34 6 3 -4 5 -23 5 -19 0 -29 -2 -22 -5z"/>
<path d="M4808 72 c11 -7 10 -10 -3 -16 -21 -8 -10 -26 16 -26 28 0 22 44 -6
48 -15 2 -16 1 -7 -6z"/>
<path d="M4850 43 c0 -21 4 -33 8 -27 4 6 15 13 25 17 25 9 17 41 -11 45 -19
3 -22 -1 -22 -35z m32 12 c0 -5 -5 -11 -11 -13 -6 -2 -11 4 -11 13 0 9 5 15
11 13 6 -2 11 -8 11 -13z"/>
<path d="M5008 72 c11 -7 10 -10 -3 -16 -21 -8 -10 -26 16 -26 28 0 22 44 -6
48 -15 2 -16 1 -7 -6z"/>
<path d="M5974 66 c-8 -22 4 -36 29 -35 20 1 20 2 -3 9 -25 8 -25 8 -2 9 14 1
22 6 20 14 -7 18 -37 21 -44 3z"/>
<path d="M6031 53 c1 -22 2 -23 6 -8 3 11 10 23 17 27 7 5 5 8 -6 8 -13 0 -18
-7 -17 -27z"/>
<path d="M6071 51 l1 -26 8 25 8 25 8 -25 8 -25 7 25 c7 24 7 24 8 3 1 -19 7
-23 31 -23 20 0 30 5 30 15 0 8 -8 15 -17 15 -15 0 -16 -2 -3 -10 13 -8 12
-10 -2 -10 -25 0 -22 19 4 29 15 5 4 8 -35 8 -55 0 -57 -1 -56 -26z"/>
<path d="M6214 65 c-4 -9 -2 -21 4 -27 16 -16 47 -5 47 17 0 26 -42 34 -51 10z
m41 -4 c7 -12 -12 -24 -25 -16 -11 7 -4 25 10 25 5 0 11 -4 15 -9z"/>
<path d="M4740 60 c0 -5 5 -10 10 -10 6 0 10 5 10 10 0 6 -4 10 -10 10 -5 0
-10 -4 -10 -10z"/>
<path d="M2550 45 c-7 -9 -11 -18 -8 -20 9 -10 38 7 38 21 0 18 -14 18 -30 -1z"/>
<path d="M5758 33 c6 -2 18 -2 25 0 6 3 1 5 -13 5 -14 0 -19 -2 -12 -5z"/>
<path d="M2490 14 c0 -9 7 -14 17 -12 25 5 28 28 4 28 -12 0 -21 -6 -21 -16z"/>
</g>
</svg>
